<svg xmlns="http://www.w3.org/2000/svg" viewBox="0 0 1008 1008"><defs><style>.cls-1{isolation:isolate;}.cls-2{fill:#fcf5eb;}.cls-3{fill:#828dab;}.cls-4{fill:#80d2f2;}.cls-5{fill:#52b6de;}.cls-10,.cls-6{fill:#524c56;}.cls-6{opacity:0.2;mix-blend-mode:hard-light;}.cls-7{fill:#6e778f;}.cls-8{fill:#f5914e;}.cls-9{fill:#4b5161;}.cls-11{fill:#f5a571;}.cls-12{fill:#f3f1ec;}.cls-13{fill:#5a6175;}.cls-14{fill:#5a6075;}.cls-15{fill:#f4e6d4;}.cls-16{fill:#d3793c;}.cls-17{fill:#72c6e7;}.cls-18{fill:#f3e5d3;}.cls-19{fill:#d8c5b2;}.cls-20{fill:#808aa9;}.cls-21{fill:#f4a471;}.cls-22{fill:#46accc;}</style></defs><title>BENEFITS-StressLess-1008x1008</title><g class="cls-1"><g id="Layer_1" data-name="Layer 1"><ellipse class="cls-2" cx="504" cy="537.92" rx="468.6" ry="467.81"/><path class="cls-3" d="M183,640.55a2.37,2.37,0,0,1-2.36-2.16L170.18,525a2.38,2.38,0,0,1,4.73-.44L185.36,638a2.37,2.37,0,0,1-2.15,2.58Z"/><path class="cls-3" d="M308.91,640.55h-.22a2.37,2.37,0,0,1-2.15-2.58L317,524.58a2.38,2.38,0,0,1,4.73.44L311.27,638.39A2.38,2.38,0,0,1,308.91,640.55Z"/><path class="cls-4" d="M379.94,271.71c33.61-28.64,54.37-68.76,54.37-115.27,0-93.77-84.33-155-188.36-155S57.59,62.67,57.59,156.44c0,46.51,20.77,86.63,54.37,115.27-32,28.46-51.64,67.62-51.64,112.85,0,92.94,82.86,150.61,185.62,151.62,102.76-1,185.62-58.68,185.62-151.62C431.57,339.33,411.92,300.17,379.94,271.71Z"/><path class="cls-5" d="M248.68,536.23c-104,0-188.36-57.9-188.36-151.67,0-45.23,19.65-84.39,51.64-112.85C78.36,243.07,57.59,203,57.59,156.44c0-93.77,84.33-155,188.36-155,0,0-105.63,60.74-105.63,155,0,81.26,47.46,115.27,47.46,115.27s-47.46,26.42-47.46,112.85C140.32,490.34,248.68,536.23,248.68,536.23Z"/><path class="cls-5" d="M243.22,536.23c104,0,188.36-57.9,188.36-151.67,0-45.23-19.65-84.39-51.64-112.85,33.61-28.64,54.37-68.76,54.37-115.27,0-93.77-84.33-155-188.36-155,0,0,105.63,60.74,105.63,155,0,81.26-47.46,115.27-47.46,115.27s47.46,26.42,47.46,112.85C351.58,490.34,243.22,536.23,243.22,536.23Z"/><path class="cls-6" d="M379.94,271.25C413.54,242.61,434.3,202.49,434.3,156c0-93.77-84.77-155-188.37-155V535.72c102.65-1,185.64-58.68,185.64-151.62C431.56,338.87,411.92,299.71,379.94,271.25Z"/><rect class="cls-7" x="164.18" y="638.16" width="163.49" height="134.75"/><circle class="cls-8" cx="317.92" cy="657.76" r="2.2"/><circle class="cls-8" cx="317.92" cy="643.14" r="2.2"/><ellipse class="cls-8" cx="310.6" cy="650.45" rx="2.2" ry="2.19"/><ellipse class="cls-8" cx="325.25" cy="650.45" rx="2.2" ry="2.19"/><path class="cls-8" d="M304.5,655.95a2.19,2.19,0,1,0,1,1.82A2.19,2.19,0,0,0,304.5,655.95Z"/><path class="cls-8" d="M304.5,641.32a2.19,2.19,0,1,0,1,1.82A2.19,2.19,0,0,0,304.5,641.32Z"/><circle class="cls-8" cx="317.92" cy="687.02" r="2.2"/><circle class="cls-8" cx="317.92" cy="672.39" r="2.2"/><ellipse class="cls-8" cx="310.6" cy="679.71" rx="2.2" ry="2.19"/><ellipse class="cls-8" cx="325.25" cy="679.71" rx="2.2" ry="2.19"/><ellipse class="cls-8" cx="310.6" cy="665.08" rx="2.2" ry="2.19"/><ellipse class="cls-8" cx="325.25" cy="665.08" rx="2.2" ry="2.19"/><path class="cls-8" d="M304.5,685.2a2.19,2.19,0,1,0,1,1.82A2.19,2.19,0,0,0,304.5,685.2Z"/><path class="cls-8" d="M304.5,670.57a2.19,2.19,0,1,0,1,1.82A2.19,2.19,0,0,0,304.5,670.57Z"/><circle class="cls-8" cx="317.92" cy="716.27" r="2.2"/><circle class="cls-8" cx="317.92" cy="701.65" r="2.2"/><ellipse class="cls-8" cx="310.6" cy="708.96" rx="2.2" ry="2.19"/><ellipse class="cls-8" cx="325.25" cy="708.96" rx="2.2" ry="2.19"/><ellipse class="cls-8" cx="310.6" cy="694.33" rx="2.2" ry="2.19"/><ellipse class="cls-8" cx="325.25" cy="694.33" rx="2.2" ry="2.19"/><path class="cls-8" d="M304.5,714.46a2.19,2.19,0,1,0,1,1.82A2.19,2.19,0,0,0,304.5,714.46Z"/><path class="cls-8" d="M304.5,699.83a2.19,2.19,0,1,0,1,1.82A2.19,2.19,0,0,0,304.5,699.83Z"/><circle class="cls-8" cx="317.92" cy="745.53" r="2.2"/><circle class="cls-8" cx="317.92" cy="730.9" r="2.2"/><ellipse class="cls-8" cx="310.6" cy="738.22" rx="2.2" ry="2.19"/><ellipse class="cls-8" cx="325.25" cy="738.22" rx="2.2" ry="2.19"/><ellipse class="cls-8" cx="310.6" cy="723.59" rx="2.2" ry="2.19"/><ellipse class="cls-8" cx="325.25" cy="723.59" rx="2.2" ry="2.19"/><path class="cls-8" d="M304.5,743.71a2.19,2.19,0,1,0,1,1.82A2.19,2.19,0,0,0,304.5,743.71Z"/><path class="cls-8" d="M304.5,729.08a2.19,2.19,0,1,0,1,1.82A2.19,2.19,0,0,0,304.5,729.08Z"/><path class="cls-8" d="M316.81,772.9H319a2.14,2.14,0,0,0-2.22,0Z"/><circle class="cls-8" cx="317.92" cy="760.16" r="2.2"/><ellipse class="cls-8" cx="310.6" cy="767.47" rx="2.2" ry="2.19"/><ellipse class="cls-8" cx="325.25" cy="767.47" rx="2.2" ry="2.19"/><ellipse class="cls-8" cx="310.6" cy="752.84" rx="2.2" ry="2.19"/><ellipse class="cls-8" cx="325.25" cy="752.84" rx="2.2" ry="2.19"/><path class="cls-8" d="M304.5,758.34a2.19,2.19,0,1,0,1,1.82A2.19,2.19,0,0,0,304.5,758.34Z"/><circle class="cls-8" cx="288.62" cy="657.76" r="2.2"/><circle class="cls-8" cx="288.62" cy="643.14" r="2.2"/><ellipse class="cls-8" cx="281.29" cy="650.45" rx="2.2" ry="2.19"/><ellipse class="cls-8" cx="295.95" cy="650.45" rx="2.2" ry="2.19"/><path class="cls-8" d="M275.2,655.95a2.19,2.19,0,1,0,1,1.82A2.19,2.19,0,0,0,275.2,655.95Z"/><path class="cls-8" d="M275.2,641.32a2.19,2.19,0,1,0,1,1.82A2.19,2.19,0,0,0,275.2,641.32Z"/><circle class="cls-8" cx="288.62" cy="687.02" r="2.2"/><circle class="cls-8" cx="288.62" cy="672.39" r="2.2"/><ellipse class="cls-8" cx="281.29" cy="679.71" rx="2.2" ry="2.19"/><ellipse class="cls-8" cx="295.95" cy="679.71" rx="2.2" ry="2.19"/><ellipse class="cls-8" cx="281.29" cy="665.08" rx="2.2" ry="2.19"/><ellipse class="cls-8" cx="295.95" cy="665.08" rx="2.2" ry="2.19"/><path class="cls-8" d="M275.2,685.2a2.19,2.19,0,1,0,1,1.82A2.19,2.19,0,0,0,275.2,685.2Z"/><path class="cls-8" d="M275.2,670.57a2.19,2.19,0,1,0,1,1.82A2.19,2.19,0,0,0,275.2,670.57Z"/><circle class="cls-8" cx="288.62" cy="716.27" r="2.2"/><circle class="cls-8" cx="288.62" cy="701.65" r="2.2"/><ellipse class="cls-8" cx="281.29" cy="708.96" rx="2.2" ry="2.19"/><ellipse class="cls-8" cx="295.95" cy="708.96" rx="2.2" ry="2.19"/><ellipse class="cls-8" cx="281.29" cy="694.33" rx="2.2" ry="2.19"/><ellipse class="cls-8" cx="295.95" cy="694.33" rx="2.2" ry="2.19"/><path class="cls-8" d="M275.2,714.46a2.19,2.19,0,1,0,1,1.82A2.19,2.19,0,0,0,275.2,714.46Z"/><path class="cls-8" d="M275.2,699.83a2.19,2.19,0,1,0,1,1.82A2.19,2.19,0,0,0,275.2,699.83Z"/><circle class="cls-8" cx="288.62" cy="745.53" r="2.2"/><circle class="cls-8" cx="288.62" cy="730.9" r="2.2"/><ellipse class="cls-8" cx="281.29" cy="738.22" rx="2.2" ry="2.19"/><ellipse class="cls-8" cx="295.95" cy="738.22" rx="2.2" ry="2.19"/><ellipse class="cls-8" cx="281.29" cy="723.59" rx="2.2" ry="2.19"/><ellipse class="cls-8" cx="295.95" cy="723.59" rx="2.2" ry="2.19"/><path class="cls-8" d="M275.2,743.71a2.19,2.19,0,1,0,1,1.82A2.19,2.19,0,0,0,275.2,743.71Z"/><path class="cls-8" d="M275.2,729.08a2.19,2.19,0,1,0,1,1.82A2.19,2.19,0,0,0,275.2,729.08Z"/><path class="cls-8" d="M302.16,772.9h2.22a2.14,2.14,0,0,0-2.22,0Z"/><path class="cls-8" d="M287.51,772.9h2.22a2.14,2.14,0,0,0-2.22,0Z"/><circle class="cls-8" cx="288.62" cy="760.16" r="2.2"/><ellipse class="cls-8" cx="281.29" cy="767.47" rx="2.2" ry="2.19"/><ellipse class="cls-8" cx="295.95" cy="767.47" rx="2.2" ry="2.19"/><ellipse class="cls-8" cx="281.29" cy="752.84" rx="2.2" ry="2.19"/><ellipse class="cls-8" cx="295.95" cy="752.84" rx="2.2" ry="2.19"/><path class="cls-8" d="M275.2,758.34a2.19,2.19,0,1,0,1,1.82A2.19,2.19,0,0,0,275.2,758.34Z"/><circle class="cls-8" cx="259.32" cy="657.76" r="2.2"/><circle class="cls-8" cx="259.32" cy="643.14" r="2.2"/><ellipse class="cls-8" cx="251.99" cy="650.45" rx="2.2" ry="2.19"/><ellipse class="cls-8" cx="266.64" cy="650.45" rx="2.2" ry="2.19"/><circle class="cls-8" cx="244.66" cy="657.76" r="2.2"/><circle class="cls-8" cx="244.66" cy="643.14" r="2.2"/><circle class="cls-8" cx="259.32" cy="687.02" r="2.2"/><circle class="cls-8" cx="259.32" cy="672.39" r="2.2"/><ellipse class="cls-8" cx="251.99" cy="679.71" rx="2.2" ry="2.19"/><ellipse class="cls-8" cx="266.64" cy="679.71" rx="2.2" ry="2.19"/><ellipse class="cls-8" cx="251.99" cy="665.08" rx="2.2" ry="2.19"/><ellipse class="cls-8" cx="266.64" cy="665.08" rx="2.2" ry="2.19"/><circle class="cls-8" cx="244.66" cy="687.02" r="2.2"/><circle class="cls-8" cx="244.66" cy="672.39" r="2.2"/><circle class="cls-8" cx="259.32" cy="716.27" r="2.2"/><circle class="cls-8" cx="259.32" cy="701.65" r="2.2"/><ellipse class="cls-8" cx="251.99" cy="708.96" rx="2.2" ry="2.19"/><ellipse class="cls-8" cx="266.64" cy="708.96" rx="2.2" ry="2.19"/><ellipse class="cls-8" cx="251.99" cy="694.33" rx="2.2" ry="2.19"/><ellipse class="cls-8" cx="266.64" cy="694.33" rx="2.2" ry="2.19"/><circle class="cls-8" cx="244.66" cy="716.27" r="2.2"/><circle class="cls-8" cx="244.66" cy="701.65" r="2.2"/><circle class="cls-8" cx="259.32" cy="745.53" r="2.2"/><circle class="cls-8" cx="259.32" cy="730.9" r="2.2"/><ellipse class="cls-8" cx="251.99" cy="738.22" rx="2.2" ry="2.19"/><ellipse class="cls-8" cx="266.64" cy="738.22" rx="2.2" ry="2.19"/><ellipse class="cls-8" cx="251.99" cy="723.59" rx="2.2" ry="2.19"/><ellipse class="cls-8" cx="266.64" cy="723.59" rx="2.2" ry="2.19"/><circle class="cls-8" cx="244.66" cy="745.53" r="2.2"/><circle class="cls-8" cx="244.66" cy="730.9" r="2.2"/><path class="cls-8" d="M272.86,772.9h2.22a2.14,2.14,0,0,0-2.22,0Z"/><path class="cls-8" d="M258.2,772.9h2.22a2.14,2.14,0,0,0-2.22,0Z"/><circle class="cls-8" cx="259.32" cy="760.16" r="2.2"/><ellipse class="cls-8" cx="251.99" cy="767.47" rx="2.2" ry="2.19"/><ellipse class="cls-8" cx="266.64" cy="767.47" rx="2.2" ry="2.19"/><ellipse class="cls-8" cx="251.99" cy="752.84" rx="2.2" ry="2.19"/><ellipse class="cls-8" cx="266.64" cy="752.84" rx="2.2" ry="2.19"/><circle class="cls-8" cx="244.66" cy="760.16" r="2.2"/><circle class="cls-8" cx="230.01" cy="657.76" r="2.2"/><circle class="cls-8" cx="230.01" cy="643.14" r="2.2"/><ellipse class="cls-8" cx="222.69" cy="650.45" rx="2.2" ry="2.19"/><ellipse class="cls-8" cx="237.34" cy="650.45" rx="2.2" ry="2.19"/><path class="cls-8" d="M215.36,655.57a2.19,2.19,0,1,0,2.2,2.19A2.19,2.19,0,0,0,215.36,655.57Z"/><path class="cls-8" d="M215.36,640.94a2.19,2.19,0,1,0,2.2,2.19A2.19,2.19,0,0,0,215.36,640.94Z"/><circle class="cls-8" cx="230.01" cy="687.02" r="2.2"/><circle class="cls-8" cx="230.01" cy="672.39" r="2.2"/><ellipse class="cls-8" cx="222.69" cy="679.71" rx="2.2" ry="2.19"/><ellipse class="cls-8" cx="237.34" cy="679.71" rx="2.2" ry="2.19"/><ellipse class="cls-8" cx="222.69" cy="665.08" rx="2.2" ry="2.19"/><ellipse class="cls-8" cx="237.34" cy="665.08" rx="2.2" ry="2.19"/><path class="cls-8" d="M215.36,684.83a2.19,2.19,0,1,0,2.2,2.19A2.19,2.19,0,0,0,215.36,684.83Z"/><path class="cls-8" d="M215.36,670.2a2.19,2.19,0,1,0,2.2,2.19A2.19,2.19,0,0,0,215.36,670.2Z"/><circle class="cls-8" cx="230.01" cy="716.27" r="2.2"/><circle class="cls-8" cx="230.01" cy="701.65" r="2.2"/><ellipse class="cls-8" cx="222.69" cy="708.96" rx="2.2" ry="2.19"/><ellipse class="cls-8" cx="237.34" cy="708.96" rx="2.2" ry="2.19"/><ellipse class="cls-8" cx="222.69" cy="694.33" rx="2.2" ry="2.19"/><ellipse class="cls-8" cx="237.34" cy="694.33" rx="2.2" ry="2.19"/><path class="cls-8" d="M215.36,714.08a2.19,2.19,0,1,0,2.2,2.19A2.19,2.19,0,0,0,215.36,714.08Z"/><path class="cls-8" d="M215.36,699.45a2.19,2.19,0,1,0,2.2,2.19A2.19,2.19,0,0,0,215.36,699.45Z"/><circle class="cls-8" cx="230.01" cy="745.53" r="2.2"/><circle class="cls-8" cx="230.01" cy="730.9" r="2.2"/><ellipse class="cls-8" cx="222.69" cy="738.22" rx="2.2" ry="2.19"/><ellipse class="cls-8" cx="237.34" cy="738.22" rx="2.2" ry="2.19"/><ellipse class="cls-8" cx="222.69" cy="723.59" rx="2.2" ry="2.19"/><ellipse class="cls-8" cx="237.34" cy="723.59" rx="2.2" ry="2.19"/><path class="cls-8" d="M215.36,743.34a2.19,2.19,0,1,0,2.2,2.19A2.19,2.19,0,0,0,215.36,743.34Z"/><path class="cls-8" d="M215.36,728.71a2.19,2.19,0,1,0,2.2,2.19A2.19,2.19,0,0,0,215.36,728.71Z"/><path class="cls-8" d="M243.55,772.9h2.22a2.14,2.14,0,0,0-2.22,0Z"/><path class="cls-8" d="M228.9,772.9h2.22a2.14,2.14,0,0,0-2.22,0Z"/><circle class="cls-8" cx="230.01" cy="760.16" r="2.2"/><ellipse class="cls-8" cx="222.69" cy="767.47" rx="2.2" ry="2.19"/><ellipse class="cls-8" cx="237.34" cy="767.47" rx="2.2" ry="2.19"/><ellipse class="cls-8" cx="222.69" cy="752.84" rx="2.2" ry="2.19"/><ellipse class="cls-8" cx="237.34" cy="752.84" rx="2.2" ry="2.19"/><path class="cls-8" d="M215.36,758a2.19,2.19,0,1,0,2.2,2.19A2.19,2.19,0,0,0,215.36,758Z"/><circle class="cls-8" cx="200.71" cy="657.76" r="2.2"/><circle class="cls-8" cx="200.71" cy="643.14" r="2.2"/><ellipse class="cls-8" cx="193.38" cy="650.45" rx="2.2" ry="2.19"/><ellipse class="cls-8" cx="208.03" cy="650.45" rx="2.2" ry="2.19"/><path class="cls-8" d="M186.06,655.57a2.19,2.19,0,1,0,2.2,2.19A2.19,2.19,0,0,0,186.06,655.57Z"/><path class="cls-8" d="M186.06,640.94a2.19,2.19,0,1,0,2.2,2.19A2.19,2.19,0,0,0,186.06,640.94Z"/><circle class="cls-8" cx="200.71" cy="687.02" r="2.2"/><circle class="cls-8" cx="200.71" cy="672.39" r="2.2"/><ellipse class="cls-8" cx="193.38" cy="679.71" rx="2.2" ry="2.19"/><ellipse class="cls-8" cx="208.03" cy="679.71" rx="2.2" ry="2.19"/><ellipse class="cls-8" cx="193.38" cy="665.08" rx="2.2" ry="2.19"/><ellipse class="cls-8" cx="208.03" cy="665.08" rx="2.2" ry="2.19"/><path class="cls-8" d="M186.06,684.83a2.19,2.19,0,1,0,2.2,2.19A2.19,2.19,0,0,0,186.06,684.83Z"/><path class="cls-8" d="M186.06,670.2a2.19,2.19,0,1,0,2.2,2.19A2.19,2.19,0,0,0,186.06,670.2Z"/><circle class="cls-8" cx="200.71" cy="716.27" r="2.2"/><circle class="cls-8" cx="200.71" cy="701.65" r="2.2"/><ellipse class="cls-8" cx="193.38" cy="708.96" rx="2.2" ry="2.19"/><ellipse class="cls-8" cx="208.03" cy="708.96" rx="2.2" ry="2.19"/><ellipse class="cls-8" cx="193.38" cy="694.33" rx="2.2" ry="2.19"/><ellipse class="cls-8" cx="208.03" cy="694.33" rx="2.2" ry="2.19"/><path class="cls-8" d="M186.06,714.08a2.19,2.19,0,1,0,2.2,2.19A2.19,2.19,0,0,0,186.06,714.08Z"/><path class="cls-8" d="M186.06,699.45a2.19,2.19,0,1,0,2.2,2.19A2.19,2.19,0,0,0,186.06,699.45Z"/><circle class="cls-8" cx="200.71" cy="745.53" r="2.2"/><circle class="cls-8" cx="200.71" cy="730.9" r="2.2"/><ellipse class="cls-8" cx="193.38" cy="738.22" rx="2.2" ry="2.19"/><ellipse class="cls-8" cx="208.03" cy="738.22" rx="2.2" ry="2.19"/><ellipse class="cls-8" cx="193.38" cy="723.59" rx="2.2" ry="2.19"/><ellipse class="cls-8" cx="208.03" cy="723.59" rx="2.2" ry="2.19"/><path class="cls-8" d="M186.06,743.34a2.19,2.19,0,1,0,2.2,2.19A2.19,2.19,0,0,0,186.06,743.34Z"/><path class="cls-8" d="M186.06,728.71a2.19,2.19,0,1,0,2.2,2.19A2.19,2.19,0,0,0,186.06,728.71Z"/><path class="cls-8" d="M214.25,772.9h2.22a2.14,2.14,0,0,0-2.22,0Z"/><path class="cls-8" d="M199.6,772.9h2.22a2.14,2.14,0,0,0-2.22,0Z"/><circle class="cls-8" cx="200.71" cy="760.16" r="2.2"/><ellipse class="cls-8" cx="193.38" cy="767.47" rx="2.2" ry="2.19"/><ellipse class="cls-8" cx="208.03" cy="767.47" rx="2.2" ry="2.19"/><ellipse class="cls-8" cx="193.38" cy="752.84" rx="2.2" ry="2.19"/><ellipse class="cls-8" cx="208.03" cy="752.84" rx="2.2" ry="2.19"/><path class="cls-8" d="M186.06,758a2.19,2.19,0,1,0,2.2,2.19A2.19,2.19,0,0,0,186.06,758Z"/><circle class="cls-8" cx="171.41" cy="657.76" r="2.2"/><circle class="cls-8" cx="171.41" cy="643.14" r="2.2"/><path class="cls-8" d="M164.18,648.27v4.37a2.18,2.18,0,0,0,0-4.37Z"/><ellipse class="cls-8" cx="178.73" cy="650.45" rx="2.2" ry="2.19"/><circle class="cls-8" cx="171.41" cy="687.02" r="2.2"/><circle class="cls-8" cx="171.41" cy="672.39" r="2.2"/><path class="cls-8" d="M164.18,677.52v4.37a2.18,2.18,0,0,0,0-4.37Z"/><ellipse class="cls-8" cx="178.73" cy="679.71" rx="2.2" ry="2.19"/><path class="cls-8" d="M164.18,662.9v4.37a2.18,2.18,0,0,0,0-4.37Z"/><ellipse class="cls-8" cx="178.73" cy="665.08" rx="2.2" ry="2.19"/><circle class="cls-8" cx="171.41" cy="716.27" r="2.2"/><circle class="cls-8" cx="171.41" cy="701.65" r="2.2"/><path class="cls-8" d="M164.18,706.78v4.37a2.18,2.18,0,0,0,0-4.37Z"/><ellipse class="cls-8" cx="178.73" cy="708.96" rx="2.2" ry="2.19"/><path class="cls-8" d="M164.18,692.15v4.37a2.18,2.18,0,0,0,0-4.37Z"/><ellipse class="cls-8" cx="178.73" cy="694.33" rx="2.2" ry="2.19"/><circle class="cls-8" cx="171.41" cy="745.53" r="2.2"/><circle class="cls-8" cx="171.41" cy="730.9" r="2.2"/><path class="cls-8" d="M164.18,736v4.37a2.18,2.18,0,0,0,0-4.37Z"/><ellipse class="cls-8" cx="178.73" cy="738.22" rx="2.2" ry="2.19"/><path class="cls-8" d="M164.18,721.41v4.37a2.18,2.18,0,0,0,0-4.37Z"/><ellipse class="cls-8" cx="178.73" cy="723.59" rx="2.2" ry="2.19"/><path class="cls-8" d="M184.95,772.9h2.22a2.14,2.14,0,0,0-2.22,0Z"/><path class="cls-8" d="M170.29,772.9h2.22a2.14,2.14,0,0,0-2.22,0Z"/><circle class="cls-8" cx="171.41" cy="760.16" r="2.2"/><path class="cls-8" d="M164.18,765.29v4.37a2.18,2.18,0,0,0,0-4.37Z"/><ellipse class="cls-8" cx="178.73" cy="767.47" rx="2.2" ry="2.19"/><path class="cls-8" d="M164.18,750.66V755a2.18,2.18,0,0,0,0-4.37Z"/><ellipse class="cls-8" cx="178.73" cy="752.84" rx="2.2" ry="2.19"/><path class="cls-9" d="M164.56,772.9a5.27,5.27,0,0,1-5.5-5.22h0a5.26,5.26,0,0,1,5.5-5.22H327.33a5.26,5.26,0,0,1,5.5,5.22h0a5.27,5.27,0,0,1-5.5,5.22H164.56Z"/><path class="cls-10" d="M196.5,678a1,1,0,0,1-1-.95V649.54a1,1,0,0,1,1.9,0v27.52A1,1,0,0,1,196.5,678Z"/><path class="cls-11" d="M201.28,688.2a15.8,15.8,0,0,0,4.07-10.84c-2.25,0-2.25,1.85-4.49,1.85s-2.24-1.85-4.48-1.85-2.25,1.85-4.49,1.85-2.24-1.85-4.49-1.85a15.8,15.8,0,0,0,4.06,10.84,15.52,15.52,0,0,0-10.63,14.71c0,8.56,7,12.73,15.54,12.73s15.54-4.16,15.54-12.73A15.51,15.51,0,0,0,201.28,688.2Z"/><path class="cls-10" d="M201.25,689.4h-9.5a.95.95,0,1,1,0-1.9h9.5a.95.95,0,1,1,0,1.9Z"/><path class="cls-10" d="M245.92,697.94a1,1,0,0,1-1-.95V649.54a1,1,0,0,1,1.9,0V697A1,1,0,0,1,245.92,697.94Z"/><path class="cls-11" d="M250.86,707.64a15.79,15.79,0,0,0,4.06-10.84c-2.24,0-2.24,1.85-4.49,1.85s-2.24-1.85-4.49-1.85-2.25,1.85-4.49,1.85-2.24-1.85-4.49-1.85A15.82,15.82,0,0,0,241,707.64a15.52,15.52,0,0,0-10.63,14.72c0,8.57,7,12.73,15.54,12.73s15.54-4.16,15.54-12.73A15.52,15.52,0,0,0,250.86,707.64Z"/><path class="cls-10" d="M250.68,708.38h-9.51a.95.95,0,1,1,0-1.9h9.51a.95.95,0,1,1,0,1.9Z"/><path class="cls-11" d="M229.08,581.84c0,15.89,10.17,15.89,10.17,31.78s-10.17,15.89-10.17,31.78h70.07c0-15.89-10.17-15.89-10.17-31.79s10.17-15.89,10.17-31.79c0-14.78-8.79-15.82-10-28.67h-50C237.88,566,229.08,567.06,229.08,581.84Z"/><path class="cls-3" d="M239.11,553.16s-11.84-7.83-5.8-17.1c7.49-11.5,21.93-.76,21.93-.76s2.76-21,22.17-16.19c16.7,4.16,10.5,21.27,10.5,21.27s6.51-1.28,8.21,4.17c2.23,7.14-7,8.61-7,8.61Z"/><path class="cls-9" d="M164.56,649.54a5.67,5.67,0,0,1-5.49-5.7h0a5.66,5.66,0,0,1,5.49-5.69H327.34a5.67,5.67,0,0,1,5.5,5.69h0a5.68,5.68,0,0,1-5.5,5.7H164.56Z"/><path class="cls-12" d="M272.25,566.44a8.44,8.44,0,0,0-8,5.63,8.38,8.38,0,1,0,0,5.5,8.43,8.43,0,1,0,8-11.13Z"/><path class="cls-9" d="M256.3,580.67a5.88,5.88,0,0,1-5.89-5.85,1.06,1.06,0,0,1,2.13,0,3.77,3.77,0,0,0,7.53,0,1.06,1.06,0,0,1,2.13,0A5.88,5.88,0,0,1,256.3,580.67Z"/><path class="cls-9" d="M272.25,580.67a5.88,5.88,0,0,1-5.89-5.85,1.06,1.06,0,0,1,2.13,0,3.77,3.77,0,0,0,7.53,0,1.06,1.06,0,0,1,2.13,0A5.88,5.88,0,0,1,272.25,580.67Z"/><path class="cls-13" d="M264.79,593.7c-18.44,0-25.42-12.31-25.71-12.84a1.14,1.14,0,0,1,2-1.1h0c.26.48,6.67,11.66,23.71,11.66s21.19-11,21.36-11.5a1.14,1.14,0,0,1,2.14.77C288.11,581.23,283.41,593.7,264.79,593.7Z"/><path class="cls-8" d="M313.85,965.61l-.23-.1Z"/><path class="cls-8" d="M401.92,994.59l-.45-.1Z"/><path class="cls-8" d="M298.68,958.55l-.15-.07Z"/><path class="cls-8" d="M360.85,983.5l-.11,0Z"/><path class="cls-8" d="M385.26,990.58l-.23-.06Z"/><path class="cls-8" d="M345,978.09l-.21-.08Z"/><path class="cls-8" d="M329.29,972.13,329,972Z"/><polygon class="cls-8" points="208.11 900.68 208.12 900.69 208.11 900.69 208.11 900.68"/><path class="cls-8" d="M435.85,1000.81l-.67-.1Z"/><path class="cls-8" d="M418.79,998l-.6-.11Z"/><path class="cls-8" d="M283.8,951h0Z"/><path class="cls-2" d="M452.39,1002.92q-8.31-.91-16.54-2.11Q444.07,1002,452.39,1002.92Z"/><path class="cls-2" d="M385,990.52q-12.22-3.19-24.18-7Q372.81,987.32,385,990.52Z"/><path class="cls-2" d="M435.17,1000.71q-8.24-1.21-16.38-2.7Q426.93,999.5,435.17,1000.71Z"/><path class="cls-2" d="M401.47,994.49q-8.16-1.82-16.21-3.92Q393.31,992.68,401.47,994.49Z"/><path class="cls-2" d="M418.19,997.9q-8.19-1.51-16.27-3.31Q410,996.39,418.19,997.9Z"/><path class="cls-2" d="M298.54,958.48q-7.44-3.63-14.74-7.52Q291.09,954.84,298.54,958.48Z"/><path class="cls-2" d="M283.79,951a469.41,469.41,0,0,1-75.67-50.27A469.39,469.39,0,0,0,283.79,951Z"/><path class="cls-2" d="M360.74,983.46q-8-2.55-15.78-5.37Q352.79,980.91,360.74,983.46Z"/><path class="cls-2" d="M344.75,978q-7.79-2.81-15.46-5.89Q337,975.2,344.75,978Z"/><path class="cls-2" d="M329,972q-7.66-3.08-15.18-6.42Q321.38,968.95,329,972Z"/><path class="cls-2" d="M313.63,965.51q-7.54-3.35-14.94-7Q306.08,962.15,313.63,965.51Z"/><path class="cls-14" d="M972.59,536.38,866.76,322.44a16.44,16.44,0,0,0-29.06-.75l-228.32,407a16.39,16.39,0,0,0,14.5,24.41c57.24-.66,190.24-2.13,297.74-2.8a465.19,465.19,0,0,0,51-212.41C972.6,537.41,972.59,536.9,972.59,536.38Z"/><path class="cls-11" d="M684.51,462.19l-157,264.12a13.1,13.1,0,0,0,11.39,19.8c64.91-.6,247.38-2.13,313.12-1a13.1,13.1,0,0,0,11.49-19.8L707.1,462.19A13.14,13.14,0,0,0,684.51,462.19Z"/><path class="cls-15" d="M829.28,478.89c17.63,42.53,44.07,74.8,80.8,57.2s-22-77.74-7.35-80.67c7.49-1.5,18.4-2.63,26.34-7.64L866.5,321.3a16.62,16.62,0,0,0-29.38-.76L773.88,433.3C802.75,435.66,816,446.91,829.28,478.89Z"/><path class="cls-15" d="M654.84,535.23c19.87-11.57,22.35-28.1,29-24.8s-14.07,43.81,12.42,43c20.7-1.65,9.93-29.75,20.7-28.1,14.5,2.23,19,24,31.46,17.36a22.37,22.37,0,0,0,4.59-3.28l-45.86-77.15a13.29,13.29,0,0,0-22.84,0L641.65,534C644.84,537.36,649.12,538.56,654.84,535.23Z"/><path class="cls-16" d="M559.92,942.64a148.26,148.26,0,0,1-4.43-39.38c2.17-97.9,100.16-175.28,219.5-174-27,60.17-98.79,230.6-98.79,230.6Z"/><path class="cls-8" d="M591.56,657.58C475.77,655,380.2,764.58,378,863.59a155.35,155.35,0,0,0,.88,20.22c-19.24-9.63-39.79-15.37-61.23-15.84-40.62-.9-78.75,12-111.23,33.42h0a470.75,470.75,0,0,0,75.89,50.41h0q7.31,3.89,14.78,7.54l.15.07q7.42,3.62,15,7l.23.1q7.54,3.35,15.22,6.44l.26.1q7.69,3.09,15.5,5.91l.21.08q7.85,2.83,15.83,5.38l.11,0q12,3.84,24.25,7l.23.06q8.07,2.1,16.25,3.93l.46.1q8.11,1.8,16.32,3.31l.6.11q8.17,1.5,16.43,2.71l.68.1q8.25,1.2,16.59,2.11a475.88,475.88,0,0,0,51.76,2.82,468.41,468.41,0,0,0,289.55-99.61,155,155,0,0,0,4.62-34.27C799.53,773.84,707.36,660.14,591.56,657.58Z"/><path class="cls-17" d="M928.79,735.69a273.66,273.66,0,0,0-92-17.76C712.71,715.19,610.32,793,608.13,891.72c-.76,34.28,10.67,66.56,31.1,94.23A469.63,469.63,0,0,0,928.79,735.69Z"/><path class="cls-3" d="M913.14,747.07a1.82,1.82,0,0,0-1.29,0,1.93,1.93,0,0,0-.91,1,2,2,0,0,0,0,1.35,1.93,1.93,0,0,0,.92.95,1.84,1.84,0,0,0,1.29,0,2,2,0,0,0,.91-1A1.93,1.93,0,0,0,913.14,747.07Z"/><path class="cls-3" d="M902.76,750.44a1.82,1.82,0,0,0-1.29,0,1.93,1.93,0,0,0-.91,1,2,2,0,0,0,0,1.35,1.93,1.93,0,0,0,.92.95,1.84,1.84,0,0,0,1.29,0,2,2,0,0,0,.91-1A1.87,1.87,0,0,0,902.76,750.44Z"/><path class="cls-3" d="M854.88,761.34a1.84,1.84,0,0,0,1.29,0,2,2,0,0,0,.91-1,1.8,1.8,0,0,0-.95-2.25,1.66,1.66,0,0,0-1.31,0,1.93,1.93,0,0,0-.91,1,2,2,0,0,0,0,1.35A1.93,1.93,0,0,0,854.88,761.34Z"/><path class="cls-3" d="M856.34,808.52a1.93,1.93,0,0,0-1-2.29,1.82,1.82,0,0,0-1.29,0,1.93,1.93,0,0,0-.91,1,2,2,0,0,0,0,1.35,1.93,1.93,0,0,0,.92.95,1.84,1.84,0,0,0,1.29,0A2,2,0,0,0,856.34,808.52Z"/><path class="cls-3" d="M821.66,769.66a1.84,1.84,0,0,0,1.29,0,2,2,0,0,0,.91-1,1.93,1.93,0,0,0-1-2.29,1.82,1.82,0,0,0-1.29,0,1.93,1.93,0,0,0-.91,1,2,2,0,0,0,0,1.35A1.92,1.92,0,0,0,821.66,769.66Z"/><path class="cls-3" d="M824.19,728.86a1.72,1.72,0,0,0,2.2-1,1.86,1.86,0,0,0-.95-2.25,1.65,1.65,0,0,0-1.31,0,1.93,1.93,0,0,0-.91,1,2,2,0,0,0,0,1.35A1.93,1.93,0,0,0,824.19,728.86Z"/><path class="cls-3" d="M850.06,728a1.84,1.84,0,0,0,1.29,0,2,2,0,0,0,.91-1,1.87,1.87,0,0,0-1-2.29,1.82,1.82,0,0,0-1.29,0,1.93,1.93,0,0,0-.91,1,2,2,0,0,0,0,1.35A1.93,1.93,0,0,0,850.06,728Z"/><path class="cls-3" d="M883.87,774.15a1.66,1.66,0,0,0-1.31,0,1.94,1.94,0,0,0-.91,1,2,2,0,0,0,0,1.35,1.92,1.92,0,0,0,.92.95,1.84,1.84,0,0,0,1.29,0,2,2,0,0,0,.91-1A1.8,1.8,0,0,0,883.87,774.15Z"/><path class="cls-3" d="M894.29,736.53a1.84,1.84,0,0,0,1.29,0,2,2,0,0,0,.91-1,1.93,1.93,0,0,0-1-2.29,1.82,1.82,0,0,0-1.29,0,1.93,1.93,0,0,0-.91,1,2,2,0,0,0,0,1.35A1.93,1.93,0,0,0,894.29,736.53Z"/><path class="cls-3" d="M869.25,720.62a1.82,1.82,0,0,0-1.29,0,1.93,1.93,0,0,0-.91,1,2,2,0,0,0,0,1.35,1.93,1.93,0,0,0,.92.95,1.84,1.84,0,0,0,1.29,0,2,2,0,0,0,.91-1A1.87,1.87,0,0,0,869.25,720.62Z"/><path class="cls-3" d="M865.55,774.24a1.64,1.64,0,0,0-1.29,0,1.93,1.93,0,0,0-.91,1,2,2,0,0,0,0,1.35,1.93,1.93,0,0,0,.92.95,1.84,1.84,0,0,0,1.29,0,2,2,0,0,0,.91-1A1.93,1.93,0,0,0,865.55,774.24Z"/><path class="cls-3" d="M879.4,788.48a1.58,1.58,0,0,0-1.31,0,1.93,1.93,0,0,0-.91,1,2,2,0,0,0,0,1.35,1.93,1.93,0,0,0,.92.95,1.84,1.84,0,0,0,1.29,0,2,2,0,0,0,.91-1A1.86,1.86,0,0,0,879.4,788.48Z"/><path class="cls-3" d="M840,769.56a1.66,1.66,0,0,0-1.31,0,1.8,1.8,0,0,0,.06,3.26,1.84,1.84,0,0,0,1.29,0,2,2,0,0,0,.91-1A1.8,1.8,0,0,0,840,769.56Z"/><path class="cls-3" d="M823.44,755.18a1.84,1.84,0,0,0,1.29,0,2,2,0,0,0,.91-1,1.93,1.93,0,0,0-1-2.29,1.82,1.82,0,0,0-1.29,0,1.93,1.93,0,0,0-.91,1,2,2,0,0,0,0,1.35A1.92,1.92,0,0,0,823.44,755.18Z"/><path class="cls-3" d="M899.26,788.94a2.21,2.21,0,0,0-.06.47l.84-1.33A2,2,0,0,0,899.26,788.94Z"/><path class="cls-3" d="M837.71,804.76a1.66,1.66,0,0,0-1.31,0,1.93,1.93,0,0,0-.91,1,2,2,0,0,0,0,1.35,1.93,1.93,0,0,0,.92.95,1.84,1.84,0,0,0,1.29,0,2,2,0,0,0,.91-1A1.8,1.8,0,0,0,837.71,804.76Z"/><path class="cls-3" d="M897.71,763.9a3.05,3.05,0,0,0-2.39,0,3.25,3.25,0,0,0-1.66,1.8,3.33,3.33,0,0,0,0,2.49,3.15,3.15,0,0,0,1.72,1.73,3,3,0,0,0,2.39-.05,3.24,3.24,0,0,0,1.66-1.79A3.39,3.39,0,0,0,897.71,763.9Z"/><path class="cls-3" d="M857.89,797.09a3.05,3.05,0,0,0-2.39,0,3.34,3.34,0,0,0-1.66,1.8,3.42,3.42,0,0,0,0,2.49,3.23,3.23,0,0,0,1.72,1.73,3.13,3.13,0,0,0,2.39-.05,3.24,3.24,0,0,0,1.66-1.79A3.44,3.44,0,0,0,857.89,797.09Z"/><path class="cls-3" d="M815.91,731.49a3,3,0,0,0-2.39,0,3.33,3.33,0,0,0-1.66,1.8,3.43,3.43,0,0,0,0,2.49,3.24,3.24,0,0,0,1.72,1.73,3.13,3.13,0,0,0,2.39-.05,3.24,3.24,0,0,0,1.66-1.79A3.44,3.44,0,0,0,815.91,731.49Z"/><path class="cls-3" d="M837.72,794.92a3,3,0,0,0,2.39-.05,3.24,3.24,0,0,0,1.66-1.79,3.39,3.39,0,0,0-1.77-4.22,3.05,3.05,0,0,0-2.39,0,3.25,3.25,0,0,0-1.66,1.8,3.32,3.32,0,0,0,0,2.49A3.15,3.15,0,0,0,837.72,794.92Z"/><path class="cls-3" d="M912.61,730.09l-1.83-.55a3,3,0,0,0,.6.34A3.4,3.4,0,0,0,912.61,730.09Z"/><path class="cls-3" d="M874.87,747a3.05,3.05,0,0,0-2.39,0,3.25,3.25,0,0,0-1.66,1.8,3.33,3.33,0,0,0,0,2.49,3.15,3.15,0,0,0,1.72,1.73A3,3,0,0,0,875,753a3.24,3.24,0,0,0,1.66-1.79A3.44,3.44,0,0,0,874.87,747Z"/><path class="cls-3" d="M839.43,749a3.1,3.1,0,0,0,4-1.85,3.39,3.39,0,0,0-1.77-4.22,3.05,3.05,0,0,0-2.39.05,3.33,3.33,0,0,0-1.66,1.8,3.43,3.43,0,0,0,0,2.49A3.24,3.24,0,0,0,839.43,749Z"/><path class="cls-3" d="M784.77,731.81a1.84,1.84,0,0,0,1.29,0,2,2,0,0,0,.91-1,1.8,1.8,0,0,0-.95-2.25,1.65,1.65,0,0,0-1.31,0,1.93,1.93,0,0,0-.91,1,2,2,0,0,0,0,1.35A1.93,1.93,0,0,0,784.77,731.81Z"/><path class="cls-3" d="M763.59,746.94a1.84,1.84,0,0,0,1.29,0,1.61,1.61,0,0,0,.89-1,1.85,1.85,0,0,0-.94-2.24,1.64,1.64,0,0,0-1.29,0,1.8,1.8,0,0,0,.06,3.26Z"/><path class="cls-3" d="M753.2,750.31a1.84,1.84,0,0,0,1.29,0,2,2,0,0,0,.91-1,1.87,1.87,0,0,0-1-2.29,1.82,1.82,0,0,0-1.29,0,1.93,1.93,0,0,0-.91,1,2,2,0,0,0,0,1.35A1.93,1.93,0,0,0,753.2,750.31Z"/><path class="cls-3" d="M762.84,773.25a1.72,1.72,0,0,0,2.2-1,1.93,1.93,0,0,0-1-2.29,1.82,1.82,0,0,0-1.29,0,1.93,1.93,0,0,0-.91,1,2,2,0,0,0,0,1.35A1.92,1.92,0,0,0,762.84,773.25Z"/><path class="cls-3" d="M706.56,757.91a1.84,1.84,0,0,0,1.29,0,2,2,0,0,0,.91-1,1.8,1.8,0,0,0-.95-2.25,1.65,1.65,0,0,0-1.31,0,1.93,1.93,0,0,0-.91,1,2,2,0,0,0,0,1.35A1.93,1.93,0,0,0,706.56,757.91Z"/><path class="cls-3" d="M710,797.29A1.85,1.85,0,0,0,709,795a1.64,1.64,0,0,0-1.29,0,1.93,1.93,0,0,0-.91,1,2,2,0,0,0,0,1.35,1.93,1.93,0,0,0,.92.95,1.84,1.84,0,0,0,1.29,0A1.61,1.61,0,0,0,710,797.29Z"/><path class="cls-3" d="M707.08,802.83a1.66,1.66,0,0,0-1.31,0,1.8,1.8,0,0,0,.06,3.26,1.84,1.84,0,0,0,1.29,0,2,2,0,0,0,.91-1A1.8,1.8,0,0,0,707.08,802.83Z"/><path class="cls-3" d="M679.12,780a1.84,1.84,0,0,0,1.29,0,2,2,0,0,0,.91-1,1.8,1.8,0,0,0-.94-2.25,1.65,1.65,0,0,0-1.31,0,1.93,1.93,0,0,0-.91,1,2,2,0,0,0,0,1.35A1.92,1.92,0,0,0,679.12,780Z"/><path class="cls-3" d="M689,765.94a1.84,1.84,0,0,0,1.29,0,2,2,0,0,0,.91-1,1.87,1.87,0,0,0-1-2.29,1.82,1.82,0,0,0-1.29,0,1.93,1.93,0,0,0-.91,1,2,2,0,0,0,0,1.35A1.93,1.93,0,0,0,689,765.94Z"/><path class="cls-3" d="M688.35,833.19a1.84,1.84,0,0,0,1.29,0,2,2,0,0,0,.91-1,1.86,1.86,0,0,0-.94-2.25,1.51,1.51,0,0,0-1.31,0,1.93,1.93,0,0,0-.91,1,2,2,0,0,0,0,1.35A1.93,1.93,0,0,0,688.35,833.19Z"/><path class="cls-3" d="M688.22,857.85a1.84,1.84,0,0,0,1.29,0,2,2,0,0,0,.91-1,1.8,1.8,0,0,0-.95-2.25,1.51,1.51,0,0,0-1.31,0,1.84,1.84,0,0,0-.91,1,2,2,0,0,0,0,1.35A1.93,1.93,0,0,0,688.22,857.85Z"/><path class="cls-3" d="M679.7,878.14a1.66,1.66,0,0,0-2.16,1,1.84,1.84,0,0,0,0,1.37,1.93,1.93,0,0,0,.92.95,1.84,1.84,0,0,0,1.29,0,2,2,0,0,0,.91-1A1.87,1.87,0,0,0,679.7,878.14Z"/><path class="cls-3" d="M655.4,835.91a1.84,1.84,0,0,0,1.29,0,1.6,1.6,0,0,0,.89-1,1.85,1.85,0,0,0-.94-2.24,1.64,1.64,0,0,0-1.29,0,1.8,1.8,0,0,0,.06,3.26Z"/><path class="cls-3" d="M736.92,830.17a1.82,1.82,0,0,0-1.29,0,1.93,1.93,0,0,0-.91,1,2,2,0,0,0,0,1.35,1.93,1.93,0,0,0,.92.95,1.84,1.84,0,0,0,1.29,0,2,2,0,0,0,.91-1A1.87,1.87,0,0,0,736.92,830.17Z"/><path class="cls-3" d="M736.2,814.1a1.93,1.93,0,0,0,.92.95,1.84,1.84,0,0,0,1.29,0,2,2,0,0,0,.91-1,1.8,1.8,0,0,0-.95-2.25,1.65,1.65,0,0,0-1.31,0,1.94,1.94,0,0,0-.91,1A2,2,0,0,0,736.2,814.1Z"/><path class="cls-3" d="M712.36,815.41a1.84,1.84,0,0,0,1.29,0,1.61,1.61,0,0,0,.89-1,1.85,1.85,0,0,0-.94-2.24,1.64,1.64,0,0,0-1.29,0,1.8,1.8,0,0,0,.06,3.26Z"/><path class="cls-3" d="M720.55,856.77a1.82,1.82,0,0,0-1.29,0,1.94,1.94,0,0,0-.91,1,2,2,0,0,0,0,1.35,1.93,1.93,0,0,0,.92.95,1.84,1.84,0,0,0,1.29,0,2,2,0,0,0,.91-1A1.93,1.93,0,0,0,720.55,856.77Z"/><path class="cls-3" d="M797.18,830a1.82,1.82,0,0,0-1.29,0,1.93,1.93,0,0,0-.91,1,2,2,0,0,0,0,1.35,1.92,1.92,0,0,0,.92.95,1.84,1.84,0,0,0,1.29,0,2,2,0,0,0,.91-1A1.93,1.93,0,0,0,797.18,830Z"/><path class="cls-3" d="M782.44,757.47a1.93,1.93,0,0,0-1-2.29,1.82,1.82,0,0,0-1.29,0,1.94,1.94,0,0,0-.91,1,2,2,0,0,0,0,1.35,1.92,1.92,0,0,0,.92.95,1.72,1.72,0,0,0,2.2-1Z"/><path class="cls-3" d="M807,816a1.8,1.8,0,0,0-.94-2.25,1.66,1.66,0,0,0-1.31,0,1.93,1.93,0,0,0-.91,1,2,2,0,0,0,0,1.35,1.92,1.92,0,0,0,.92.95,1.84,1.84,0,0,0,1.29,0A2,2,0,0,0,807,816Z"/><path class="cls-3" d="M752.44,792.2a2,2,0,0,0,.91-1,1.8,1.8,0,0,0-.95-2.25,1.65,1.65,0,0,0-1.31,0,1.93,1.93,0,0,0-.91,1,2,2,0,0,0,0,1.35,1.93,1.93,0,0,0,.92.95A1.84,1.84,0,0,0,752.44,792.2Z"/><path class="cls-3" d="M719.35,775.86a1.85,1.85,0,0,0,.91-1,1.8,1.8,0,0,0-.94-2.25,1.66,1.66,0,0,0-1.31,0,1.93,1.93,0,0,0-.91,1,2,2,0,0,0,0,1.35,1.92,1.92,0,0,0,.92.95A1.83,1.83,0,0,0,719.35,775.86Z"/><path class="cls-3" d="M643.45,904.24a1.64,1.64,0,0,0-1.29,0,1.94,1.94,0,0,0-.91,1,2,2,0,0,0,0,1.35,1.92,1.92,0,0,0,.92.95,1.84,1.84,0,0,0,1.29,0,1.61,1.61,0,0,0,.89-1A1.85,1.85,0,0,0,643.45,904.24Z"/><path class="cls-3" d="M644.4,862.8a1.84,1.84,0,0,0,1.29,0,2,2,0,0,0,.91-1,1.8,1.8,0,0,0-.95-2.25,1.66,1.66,0,0,0-1.31,0,1.94,1.94,0,0,0-.91,1,2,2,0,0,0,0,1.35A1.93,1.93,0,0,0,644.4,862.8Z"/><path class="cls-3" d="M683.73,784.72a1.72,1.72,0,0,0,2.2-1,1.86,1.86,0,0,0-.95-2.25,1.65,1.65,0,0,0-1.31,0,1.93,1.93,0,0,0-.91,1,2,2,0,0,0,0,1.35A1.93,1.93,0,0,0,683.73,784.72Z"/><path class="cls-3" d="M808.1,771.74a1.84,1.84,0,0,0,1.29,0,2,2,0,0,0,.91-1,1.93,1.93,0,0,0-1-2.29,1.82,1.82,0,0,0-1.29,0,1.93,1.93,0,0,0-.91,1,2,2,0,0,0,0,1.35A1.93,1.93,0,0,0,808.1,771.74Z"/><path class="cls-3" d="M653.4,881.11a1.61,1.61,0,0,0,.89-1,1.85,1.85,0,0,0-.94-2.24,1.64,1.64,0,0,0-1.29,0,1.93,1.93,0,0,0-.91,1,2,2,0,0,0,0,1.35,1.93,1.93,0,0,0,.92.95A1.84,1.84,0,0,0,653.4,881.11Z"/><path class="cls-3" d="M732,743.57a1.84,1.84,0,0,0,1.29,0,2,2,0,0,0,.91-1,1.8,1.8,0,0,0-.95-2.25,1.65,1.65,0,0,0-1.31,0,1.94,1.94,0,0,0-.91,1,2,2,0,0,0,0,1.35A1.93,1.93,0,0,0,732,743.57Z"/><path class="cls-3" d="M724.3,762.67a2,2,0,0,0,.91-1,1.87,1.87,0,0,0-1-2.29,1.82,1.82,0,0,0-1.29,0,1.93,1.93,0,0,0-.91,1,2,2,0,0,0,0,1.35,1.93,1.93,0,0,0,.92.95A1.84,1.84,0,0,0,724.3,762.67Z"/><path class="cls-3" d="M735.38,789a1.61,1.61,0,0,0,.89-1,1.85,1.85,0,0,0-.94-2.24,1.64,1.64,0,0,0-1.29,0,1.94,1.94,0,0,0-.91,1,2,2,0,0,0,0,1.35,1.93,1.93,0,0,0,.92.95A1.84,1.84,0,0,0,735.38,789Z"/><path class="cls-3" d="M775.11,814.94a1.94,1.94,0,0,0-.91,1,2,2,0,0,0,0,1.35,1.92,1.92,0,0,0,.92.95,1.84,1.84,0,0,0,1.29,0,2,2,0,0,0,.91-1,1.8,1.8,0,0,0-.95-2.25A1.51,1.51,0,0,0,775.11,814.94Z"/><path class="cls-3" d="M814.11,792.29a1.66,1.66,0,0,0-1.31,0,1.93,1.93,0,0,0-.91,1,2,2,0,0,0,0,1.35,1.78,1.78,0,0,0,.9.9,1.66,1.66,0,0,0,1.31,0,2,2,0,0,0,.91-1A1.8,1.8,0,0,0,814.11,792.29Z"/><path class="cls-3" d="M781.9,790.53a2,2,0,0,0,0,1.35,1.93,1.93,0,0,0,.92.95,1.84,1.84,0,0,0,1.29,0,2,2,0,0,0,.91-1,1.8,1.8,0,0,0-.95-2.25,1.66,1.66,0,0,0-1.31,0A1.93,1.93,0,0,0,781.9,790.53Z"/><path class="cls-3" d="M774.67,773.32a1.84,1.84,0,0,0,1.29,0,1.61,1.61,0,0,0,.89-1,1.85,1.85,0,0,0-.94-2.24,1.64,1.64,0,0,0-1.29,0,1.93,1.93,0,0,0-.91,1,2,2,0,0,0,0,1.35A1.93,1.93,0,0,0,774.67,773.32Z"/><path class="cls-3" d="M713.33,744.28l-1,.5a1.56,1.56,0,0,0,.47-.1A1.68,1.68,0,0,0,713.33,744.28Z"/><path class="cls-3" d="M702.59,839a1.84,1.84,0,0,0,1.29,0,2,2,0,0,0,.91-1,1.8,1.8,0,0,0-.95-2.25,1.66,1.66,0,0,0-1.31,0,1.93,1.93,0,0,0-.91,1,2,2,0,0,0,0,1.35A1.92,1.92,0,0,0,702.59,839Z"/><path class="cls-3" d="M667.85,812.47a1.84,1.84,0,0,0,1.29,0,2,2,0,0,0,.91-1,1.93,1.93,0,0,0-1-2.29,1.82,1.82,0,0,0-1.29,0,1.93,1.93,0,0,0-.91,1,2,2,0,0,0,0,1.35A1.93,1.93,0,0,0,667.85,812.47Z"/><path class="cls-3" d="M669.78,838.93a2,2,0,0,0,0,1.35,1.93,1.93,0,0,0,.92.95,1.84,1.84,0,0,0,1.29,0,1.61,1.61,0,0,0,.89-1,1.85,1.85,0,0,0-.94-2.24,1.64,1.64,0,0,0-1.29,0A1.83,1.83,0,0,0,669.78,838.93Z"/><path class="cls-3" d="M666.75,872.29a2,2,0,0,0,.91-1,1.93,1.93,0,0,0-1-2.29,1.73,1.73,0,0,0-1.29,0,1.93,1.93,0,0,0-.91,1,2,2,0,0,0,0,1.35,1.93,1.93,0,0,0,.92.95A1.84,1.84,0,0,0,666.75,872.29Z"/><path class="cls-3" d="M743.18,845.09a1.82,1.82,0,0,0-1.29,0,1.93,1.93,0,0,0-.91,1,2,2,0,0,0,0,1.35,1.93,1.93,0,0,0,.92.95,1.84,1.84,0,0,0,1.29,0,2,2,0,0,0,.91-1A1.93,1.93,0,0,0,743.18,845.09Z"/><path class="cls-3" d="M665.76,788.76a1.8,1.8,0,0,0-.94-2.24,1.64,1.64,0,0,0-1.29,0,1.93,1.93,0,0,0-.91,1,2,2,0,0,0,0,1.35,1.93,1.93,0,0,0,.92.95,1.83,1.83,0,0,0,1.29,0A1.61,1.61,0,0,0,665.76,788.76Z"/><path class="cls-3" d="M649.69,809.82a1.82,1.82,0,0,0-1.29,0,1.93,1.93,0,0,0-.91,1,2,2,0,0,0,0,1.35,1.92,1.92,0,0,0,.92.95,1.84,1.84,0,0,0,1.29,0,2,2,0,0,0,.91-1A1.87,1.87,0,0,0,649.69,809.82Z"/><path class="cls-3" d="M638.11,826a1.85,1.85,0,0,0-.94-2.24,1.64,1.64,0,0,0-1.29,0,1.8,1.8,0,0,0,.06,3.26,1.84,1.84,0,0,0,1.29,0A1.61,1.61,0,0,0,638.11,826Z"/><path class="cls-3" d="M633.53,843.16a1.64,1.64,0,0,0-1.29,0,1.93,1.93,0,0,0-.91,1,2,2,0,0,0,0,1.35,1.93,1.93,0,0,0,.92.95,1.84,1.84,0,0,0,1.29,0,1.61,1.61,0,0,0,.89-1A1.85,1.85,0,0,0,633.53,843.16Z"/><path class="cls-3" d="M615.11,889.83a1.82,1.82,0,0,0-1.29,0,1.93,1.93,0,0,0-.91,1,2,2,0,0,0,0,1.35,1.92,1.92,0,0,0,.92.95,1.84,1.84,0,0,0,1.29,0,2,2,0,0,0,.91-1A1.93,1.93,0,0,0,615.11,889.83Z"/><path class="cls-3" d="M704,864.3a1.82,1.82,0,0,0-1.29,0,1.94,1.94,0,0,0-.91,1,2,2,0,0,0,0,1.35,1.93,1.93,0,0,0,.92.95,1.84,1.84,0,0,0,1.29,0,2,2,0,0,0,.91-1A1.93,1.93,0,0,0,704,864.3Z"/><path class="cls-3" d="M792.16,768.13a1.65,1.65,0,0,0-1.31,0,1.61,1.61,0,0,0-.89,1,1.8,1.8,0,0,0,0,1.3,1.75,1.75,0,0,0,1,.93,1.47,1.47,0,0,0,1.25,0,1.86,1.86,0,0,0,.91-1A1.8,1.8,0,0,0,792.16,768.13Z"/><path class="cls-3" d="M610,918.19c.16,1,.33,1.9.51,2.85a1.56,1.56,0,0,0,.39-.64A1.85,1.85,0,0,0,610,918.19Z"/><path class="cls-3" d="M762.31,850a1.84,1.84,0,0,0,1.29,0,2,2,0,0,0,.91-1,1.93,1.93,0,0,0-1-2.29,1.82,1.82,0,0,0-1.29,0,1.93,1.93,0,0,0-.91,1,2,2,0,0,0,0,1.35A1.93,1.93,0,0,0,762.31,850Z"/><path class="cls-3" d="M751.16,764.69a3.44,3.44,0,0,0-1.77-4.22,3.05,3.05,0,0,0-2.39,0,3.25,3.25,0,0,0-1.66,1.8,3.43,3.43,0,0,0,0,2.49,3.32,3.32,0,0,0,1.72,1.73,3.13,3.13,0,0,0,2.39-.05A3.24,3.24,0,0,0,751.16,764.69Z"/><path class="cls-3" d="M619.66,879.33a3.44,3.44,0,0,0-1.77-4.22,3.05,3.05,0,0,0-2.39,0,3.31,3.31,0,0,0-1.61,4.29,3.07,3.07,0,0,0,4.11,1.67A3.24,3.24,0,0,0,619.66,879.33Z"/><path class="cls-3" d="M683.76,800.89a3.44,3.44,0,0,0-1.77-4.22,3.05,3.05,0,0,0-2.39,0,3.25,3.25,0,0,0-1.66,1.8,3.33,3.33,0,0,0,0,2.49,3.23,3.23,0,0,0,1.72,1.73,3,3,0,0,0,2.39-.05A3.24,3.24,0,0,0,683.76,800.89Z"/><path class="cls-3" d="M654.47,845.69a3,3,0,0,0,2.39-.05,3.16,3.16,0,0,0,1.66-1.79,3.39,3.39,0,0,0-1.77-4.22,3.05,3.05,0,0,0-2.39.05,3.25,3.25,0,0,0-1.66,1.8,3.43,3.43,0,0,0,0,2.49A3.23,3.23,0,0,0,654.47,845.69Z"/><path class="cls-3" d="M756.9,815.81a3.05,3.05,0,0,0-2.39,0,3.25,3.25,0,0,0-1.66,1.8,3.33,3.33,0,0,0,0,2.49,3,3,0,0,0,1.77,1.71,2.85,2.85,0,0,0,2.34,0,3.24,3.24,0,0,0,1.66-1.79A3.39,3.39,0,0,0,756.9,815.81Z"/><path class="cls-3" d="M798.44,795.06a3,3,0,0,0,2.39-.05,3.16,3.16,0,0,0,1.66-1.79,3.39,3.39,0,0,0-1.77-4.22,3,3,0,0,0-2.39,0,3.25,3.25,0,0,0-1.66,1.8,3.43,3.43,0,0,0,0,2.49A3.32,3.32,0,0,0,798.44,795.06Z"/><path class="cls-3" d="M822.57,812.43a3.24,3.24,0,0,0,1.66-1.79,3.44,3.44,0,0,0-1.77-4.22,3.05,3.05,0,0,0-2.39,0,3.34,3.34,0,0,0-1.66,1.8,3.42,3.42,0,0,0,0,2.49,3.23,3.23,0,0,0,1.72,1.73A3.13,3.13,0,0,0,822.57,812.43Z"/><path class="cls-3" d="M730.89,797.6a3.05,3.05,0,0,0-2.39,0,3.25,3.25,0,0,0-1.66,1.8,3.43,3.43,0,0,0,0,2.49,3.24,3.24,0,0,0,1.72,1.73,3,3,0,0,0,2.39-.05,3.24,3.24,0,0,0,1.66-1.79A3.39,3.39,0,0,0,730.89,797.6Z"/><path class="cls-3" d="M776.58,831.44a3.05,3.05,0,0,0-2.39,0,3.25,3.25,0,0,0-1.66,1.8,3.32,3.32,0,0,0,0,2.49,3,3,0,0,0,1.77,1.71,2.85,2.85,0,0,0,2.34,0,3.24,3.24,0,0,0,1.66-1.79A3.39,3.39,0,0,0,776.58,831.44Z"/><path class="cls-3" d="M795.87,752.5a3.44,3.44,0,0,0-1.77-4.22,3.05,3.05,0,0,0-2.39.05,3.25,3.25,0,0,0-1.66,1.8,3.43,3.43,0,0,0,0,2.49,3.23,3.23,0,0,0,1.72,1.73,3,3,0,0,0,2.39-.05A3.24,3.24,0,0,0,795.87,752.5Z"/><path class="cls-3" d="M694,869.08a3.05,3.05,0,0,0-2.39,0,3.25,3.25,0,0,0-1.66,1.8,3.42,3.42,0,0,0,0,2.49,3.15,3.15,0,0,0,1.72,1.73,3,3,0,0,0,2.39-.05,3.24,3.24,0,0,0,1.66-1.79A3.44,3.44,0,0,0,694,869.08Z"/><path class="cls-3" d="M715.7,833.24a3,3,0,0,0-2.39,0,3.25,3.25,0,0,0-1.66,1.8,3.33,3.33,0,0,0,0,2.49,3.15,3.15,0,0,0,1.72,1.73,3,3,0,0,0,2.39-.05,3.24,3.24,0,0,0,1.66-1.79A3.44,3.44,0,0,0,715.7,833.24Z"/><path class="cls-3" d="M626.7,893a3.05,3.05,0,0,0-2.39,0,3.31,3.31,0,0,0-1.61,4.29,3.23,3.23,0,0,0,1.72,1.73,3.13,3.13,0,0,0,2.39-.05,3.24,3.24,0,0,0,1.66-1.79A3.39,3.39,0,0,0,626.7,893Z"/><path class="cls-3" d="M872.52,825.19a1.93,1.93,0,0,0-.91,1,2,2,0,0,0,0,1.35,1.66,1.66,0,0,0,.18.26l2-2.58-.05,0A1.64,1.64,0,0,0,872.52,825.19Z"/><path class="cls-3" d="M857.17,813.61a1.82,1.82,0,0,0-1.29,0,1.71,1.71,0,0,0-.91,1,2,2,0,0,0,0,1.35,1.93,1.93,0,0,0,.92.95,1.84,1.84,0,0,0,1.29,0,2,2,0,0,0,.91-1A1.87,1.87,0,0,0,857.17,813.61Z"/><path class="cls-3" d="M852.12,827.06a3.05,3.05,0,0,0-2.39,0,3.25,3.25,0,0,0-1.66,1.8,3.43,3.43,0,0,0,0,2.49,3.32,3.32,0,0,0,1.72,1.73,3,3,0,0,0,2.39-.05,3.24,3.24,0,0,0,1.66-1.79A3.5,3.5,0,0,0,852.12,827.06Z"/><path class="cls-3" d="M834.19,843.22a1.64,1.64,0,0,0-1.29,0,1.8,1.8,0,0,0,.06,3.26,1.83,1.83,0,0,0,1.29,0,1.61,1.61,0,0,0,.89-1A1.85,1.85,0,0,0,834.19,843.22Z"/><path class="cls-3" d="M802.28,857.77a1.82,1.82,0,0,0-1.29,0,1.68,1.68,0,0,0-.89,1,1.8,1.8,0,0,0,0,1.3,1.75,1.75,0,0,0,1,.93,1.63,1.63,0,0,0,1.25,0,2,2,0,0,0,.91-1A1.87,1.87,0,0,0,802.28,857.77Z"/><path class="cls-3" d="M800.72,879a1.66,1.66,0,0,0-1.31,0,1.94,1.94,0,0,0-.91,1,2,2,0,0,0,0,1.35,1.92,1.92,0,0,0,.92.95,1.83,1.83,0,0,0,1.29,0,2,2,0,0,0,.91-1A1.8,1.8,0,0,0,800.72,879Z"/><path class="cls-3" d="M784.33,883.73a1.93,1.93,0,0,0-1-2.29,1.82,1.82,0,0,0-1.29,0,1.94,1.94,0,0,0-.91,1,2,2,0,0,0,0,1.35,1.93,1.93,0,0,0,.92.95,1.72,1.72,0,0,0,2.2-1Z"/><path class="cls-3" d="M768.17,895.2a1.82,1.82,0,0,0-1.29,0,1.68,1.68,0,0,0-.89,1,1.79,1.79,0,0,0,0,1.3,1.75,1.75,0,0,0,1,.93,1.63,1.63,0,0,0,1.25,0,2,2,0,0,0,.91-1A1.87,1.87,0,0,0,768.17,895.2Z"/><path class="cls-3" d="M763.83,884.88a1.64,1.64,0,0,0-1.29,0,1.93,1.93,0,0,0-.91,1,2,2,0,0,0,0,1.35,1.93,1.93,0,0,0,.92.95,1.84,1.84,0,0,0,1.29,0,1.61,1.61,0,0,0,.89-1A1.85,1.85,0,0,0,763.83,884.88Z"/><path class="cls-3" d="M753.85,879.86a1.82,1.82,0,0,0-1.29,0,1.93,1.93,0,0,0-.91,1,2,2,0,0,0,0,1.35,1.93,1.93,0,0,0,.92.95,1.84,1.84,0,0,0,1.29,0,2,2,0,0,0,.91-1A1.87,1.87,0,0,0,753.85,879.86Z"/><path class="cls-3" d="M701.68,933.72a1.46,1.46,0,0,0-1.25,0,1.93,1.93,0,0,0-.91,1,2,2,0,0,0,0,1.35,1.92,1.92,0,0,0,.92.95,1.84,1.84,0,0,0,1.29,0,1.61,1.61,0,0,0,.89-1A1.8,1.8,0,0,0,701.68,933.72Z"/><path class="cls-3" d="M647.14,960a1.46,1.46,0,0,0-1.25,0,1.93,1.93,0,0,0-.91,1,2,2,0,0,0,0,1.35,1.92,1.92,0,0,0,.92.95,1.84,1.84,0,0,0,1.29,0,1.61,1.61,0,0,0,.89-1A1.8,1.8,0,0,0,647.14,960Z"/><path class="cls-3" d="M625.37,954.86a1.64,1.64,0,0,0-1.29,0,1.93,1.93,0,0,0-.91,1,2,2,0,0,0,0,1.35,1.93,1.93,0,0,0,.92.95,1.84,1.84,0,0,0,1.29,0,1.61,1.61,0,0,0,.89-1A1.85,1.85,0,0,0,625.37,954.86Z"/><path class="cls-3" d="M646.47,923.91a2,2,0,0,0,.91-1,1.87,1.87,0,0,0-1-2.29,1.82,1.82,0,0,0-1.29,0,1.93,1.93,0,0,0-.91,1,2,2,0,0,0,0,1.35,1.93,1.93,0,0,0,.92.95A1.84,1.84,0,0,0,646.47,923.91Z"/><path class="cls-3" d="M691.14,952.2a1.82,1.82,0,0,0-1.29,0,1.74,1.74,0,0,0-.86,2.31,1.59,1.59,0,0,0,1,.93,1.63,1.63,0,0,0,1.25,0,1.68,1.68,0,0,0,.89-1A1.8,1.8,0,0,0,691.14,952.2Z"/><path class="cls-3" d="M724.78,913.67a1.65,1.65,0,0,0-1.31,0,1.93,1.93,0,0,0-.91,1,2,2,0,0,0,0,1.35,1.69,1.69,0,0,0,.9.9,1.66,1.66,0,0,0,1.31,0,2,2,0,0,0,.91-1A1.8,1.8,0,0,0,724.78,913.67Z"/><path class="cls-3" d="M712.31,893.34a1.84,1.84,0,0,0,1.29,0,1.68,1.68,0,0,0,.89-1,1.85,1.85,0,0,0-.94-2.24,1.64,1.64,0,0,0-1.29,0,1.8,1.8,0,0,0,.06,3.26Z"/><path class="cls-3" d="M658.88,962.81a1.64,1.64,0,0,0-1.29,0,1.93,1.93,0,0,0-.91,1,2,2,0,0,0,0,1.35,1.93,1.93,0,0,0,.92.95,1.84,1.84,0,0,0,1.29,0,1.61,1.61,0,0,0,.89-1A1.85,1.85,0,0,0,658.88,962.81Z"/><path class="cls-3" d="M786.33,860.4a1.83,1.83,0,0,0-.91,1,2,2,0,0,0,0,1.35,1.93,1.93,0,0,0,.92.95,1.84,1.84,0,0,0,1.29,0,2,2,0,0,0,.91-1,1.87,1.87,0,0,0-1-2.29A1.73,1.73,0,0,0,786.33,860.4Z"/><path class="cls-3" d="M785.65,911.82l1.45-1.09a1.68,1.68,0,0,0-.56.14A1.93,1.93,0,0,0,785.65,911.82Z"/><path class="cls-3" d="M811.46,889.12a1.46,1.46,0,0,0-1.25,0,1.93,1.93,0,0,0-.91,1,2,2,0,0,0,0,1.35,1.83,1.83,0,0,0,.66.76l2.41-2.09A1.68,1.68,0,0,0,811.46,889.12Z"/><path class="cls-3" d="M822,851.54a1.82,1.82,0,0,0-1.29,0,1.93,1.93,0,0,0-.91,1,2,2,0,0,0,0,1.35,1.93,1.93,0,0,0,.92.95,1.66,1.66,0,0,0,1.29,0,1.85,1.85,0,0,0,.91-1A1.93,1.93,0,0,0,822,851.54Z"/><path class="cls-3" d="M804.7,841.69a1.66,1.66,0,0,0-1.31,0,1.93,1.93,0,0,0-.91,1,2,2,0,0,0,0,1.35,1.92,1.92,0,0,0,.92.95,1.66,1.66,0,0,0,1.29,0,1.75,1.75,0,0,0,0-3.21Z"/><path class="cls-3" d="M809.78,869.39a1.93,1.93,0,0,0-1-2.29,1.82,1.82,0,0,0-1.29,0,1.93,1.93,0,0,0-.91,1,2,2,0,0,0,0,1.35,1.93,1.93,0,0,0,.92.95,1.72,1.72,0,0,0,2.2-1Z"/><path class="cls-3" d="M757.79,920.44a1.82,1.82,0,0,0-1.29,0,1.94,1.94,0,0,0-.91,1,2,2,0,0,0,0,1.35,1.93,1.93,0,0,0,.92.95,1.84,1.84,0,0,0,1.29,0,2,2,0,0,0,.91-1A1.87,1.87,0,0,0,757.79,920.44Z"/><path class="cls-3" d="M738.59,906a1.84,1.84,0,0,0,1.29,0,1.61,1.61,0,0,0,.89-1,1.85,1.85,0,0,0-.94-2.24,1.64,1.64,0,0,0-1.29,0,1.93,1.93,0,0,0-.91,1,2,2,0,0,0,0,1.35A1.93,1.93,0,0,0,738.59,906Z"/><path class="cls-3" d="M731.79,946a1.64,1.64,0,0,0-1.29,0,1.93,1.93,0,0,0-.91,1,2.06,2.06,0,0,0,0,1.08l2.83-1.57A1.65,1.65,0,0,0,731.79,946Z"/><path class="cls-3" d="M639.43,975.84a1.65,1.65,0,0,0-1.31,0,1.74,1.74,0,0,0-.86,2.31,1.59,1.59,0,0,0,1,.93,1.63,1.63,0,0,0,1.25,0,1.68,1.68,0,0,0,.89-1A1.74,1.74,0,0,0,639.43,975.84Z"/><path class="cls-3" d="M672,947.26a1.82,1.82,0,0,0-1.29,0,1.93,1.93,0,0,0-.91,1,2,2,0,0,0,0,1.35,1.93,1.93,0,0,0,.92.95,1.84,1.84,0,0,0,1.29,0,2,2,0,0,0,.91-1A1.87,1.87,0,0,0,672,947.26Z"/><path class="cls-3" d="M640.25,937.19a1.49,1.49,0,0,0-1.31,0,1.93,1.93,0,0,0-.91,1,2,2,0,0,0,0,1.35,1.69,1.69,0,0,0,.9.9,1.65,1.65,0,0,0,1.31,0,2,2,0,0,0,.91-1A1.8,1.8,0,0,0,640.25,937.19Z"/><path class="cls-3" d="M691.19,896.14a1.64,1.64,0,0,0-1.29,0,1.93,1.93,0,0,0-.91,1,2,2,0,0,0,0,1.35,1.93,1.93,0,0,0,.92.95,1.84,1.84,0,0,0,1.29,0,1.61,1.61,0,0,0,.89-1A1.85,1.85,0,0,0,691.19,896.14Z"/><path class="cls-3" d="M659.55,905.1a1.82,1.82,0,0,0-1.29,0,1.93,1.93,0,0,0-.91,1,2,2,0,0,0,0,1.35,1.93,1.93,0,0,0,.92.95,1.84,1.84,0,0,0,1.29,0,2,2,0,0,0,.91-1A1.87,1.87,0,0,0,659.55,905.1Z"/><path class="cls-3" d="M736.3,869.28a2,2,0,0,0,.91-1,1.83,1.83,0,0,0-.05-1.3l0,0a1.57,1.57,0,0,0-2.18-.92,1.93,1.93,0,0,0-.91,1,2.19,2.19,0,0,0-.09.68,1.84,1.84,0,0,0,.14.66h0a1.92,1.92,0,0,0,.92.95A1.83,1.83,0,0,0,736.3,869.28Z"/><path class="cls-3" d="M728.82,885.81a1.82,1.82,0,0,0-1.29,0,1.71,1.71,0,0,0-.91,1,2,2,0,0,0,0,1.35,1.93,1.93,0,0,0,.92.95,1.84,1.84,0,0,0,1.29,0,2,2,0,0,0,.91-1A1.87,1.87,0,0,0,728.82,885.81Z"/><path class="cls-3" d="M738.35,877.3a1.85,1.85,0,0,0-.94-2.24,1.64,1.64,0,0,0-1.29,0,1.93,1.93,0,0,0-.91,1,2,2,0,0,0,0,1.35,1.93,1.93,0,0,0,.92.95,1.84,1.84,0,0,0,1.29,0A1.61,1.61,0,0,0,738.35,877.3Z"/><path class="cls-3" d="M827,867.21a3.05,3.05,0,0,0-2.39,0,3.25,3.25,0,0,0-1.66,1.8,3.42,3.42,0,0,0,0,2.49,3.23,3.23,0,0,0,1.72,1.73,3,3,0,0,0,2.39-.05,3.24,3.24,0,0,0,1.66-1.79A3.44,3.44,0,0,0,827,867.21Z"/><path class="cls-3" d="M842.7,854.59a3.14,3.14,0,0,0-2.39.05,3.06,3.06,0,0,0-1.63,1.73,3.47,3.47,0,0,0,0,2.56,3.23,3.23,0,0,0,1.72,1.73,3.13,3.13,0,0,0,2.39-.05,3.24,3.24,0,0,0,1.66-1.79A3.44,3.44,0,0,0,842.7,854.59Z"/><path class="cls-3" d="M763.51,871.13a3,3,0,0,0,2.39-.05,3.24,3.24,0,0,0,1.66-1.79,3.39,3.39,0,0,0-1.77-4.22,3.05,3.05,0,0,0-2.39.05,3.25,3.25,0,0,0-1.66,1.8,3.43,3.43,0,0,0,0,2.49A3.23,3.23,0,0,0,763.51,871.13Z"/><path class="cls-3" d="M623.79,948.47A3.43,3.43,0,0,0,622,944.3a3.05,3.05,0,0,0-2.39.05,3.25,3.25,0,0,0-1.66,1.8,3.3,3.3,0,0,0-.19.93c.35.92.74,1.83,1.11,2.75a2.94,2.94,0,0,0,3.24.49A3,3,0,0,0,623.79,948.47Z"/><path class="cls-3" d="M713.52,899.84a3,3,0,0,0-2.39.05,3.25,3.25,0,0,0-1.66,1.8,3.42,3.42,0,0,0,0,2.49,3.24,3.24,0,0,0,1.72,1.73,3.13,3.13,0,0,0,2.39-.05,3.24,3.24,0,0,0,1.66-1.79A3.44,3.44,0,0,0,713.52,899.84Z"/><path class="cls-3" d="M686.83,917.48a3,3,0,0,0-2.39,0,3.25,3.25,0,0,0-1.66,1.8,3.33,3.33,0,0,0,0,2.49,3.23,3.23,0,0,0,1.72,1.73,3,3,0,0,0,2.39-.05,3.24,3.24,0,0,0,1.66-1.79A3.44,3.44,0,0,0,686.83,917.48Z"/><path class="cls-3" d="M658.06,930.16a3.44,3.44,0,0,0-1.77-4.22,3,3,0,0,0-2.39.05,3.25,3.25,0,0,0-1.66,1.8,3.42,3.42,0,0,0,0,2.49A3.24,3.24,0,0,0,654,932a3.13,3.13,0,0,0,2.39-.05A3.24,3.24,0,0,0,658.06,930.16Z"/><path class="cls-3" d="M771.53,918.81a3.25,3.25,0,0,0-1.66,1.8,3.43,3.43,0,0,0,0,2.49l0,0q2.55-1.76,5.08-3.55a3.07,3.07,0,0,0-1.09-.82A3,3,0,0,0,771.53,918.81Z"/><path class="cls-3" d="M787.33,897.61a3,3,0,0,0-2.39.05,3.25,3.25,0,0,0-1.66,1.8,3.43,3.43,0,0,0,0,2.49,3.23,3.23,0,0,0,1.72,1.73,3.13,3.13,0,0,0,2.39-.05,3.24,3.24,0,0,0,1.66-1.79A3.44,3.44,0,0,0,787.33,897.61Z"/><path class="cls-3" d="M742.07,921a3.05,3.05,0,0,0-2.39.05,3.25,3.25,0,0,0-1.66,1.8,3.33,3.33,0,0,0,0,2.49,3.07,3.07,0,0,0,4.11,1.67,3.24,3.24,0,0,0,1.66-1.79A3.44,3.44,0,0,0,742.07,921Z"/><path class="cls-3" d="M670,964.8a3.05,3.05,0,0,0-2.39,0,3.25,3.25,0,0,0-1.66,1.8,3.33,3.33,0,0,0,0,2.49,3.15,3.15,0,0,0,1.72,1.73,3,3,0,0,0,2.39-.05,3.24,3.24,0,0,0,1.66-1.79A3.44,3.44,0,0,0,670,964.8Z"/><path class="cls-14" d="M857.65,846.1c-14.16-6.61-25.21-8-25.21-8-71.91-15.93-136,93.27-159.84,63.6s-78.51-97.79-166.76-72.4c-53.54,15.4-57.48,71.47-105.34,87.49-42.5,13.52-51.34,23.52-52.06,33.89-1.05,15.1,6.67,25.88,19.34,36.24A469.28,469.28,0,0,0,504,1007C645.16,1007,771.74,944.68,857.65,846.1Z"/><rect class="cls-18" x="555.78" y="850.09" width="64.17" height="51.01" transform="matrix(1, 0, 0, 1, -2.3, 1.55)"/><rect class="cls-19" x="555.72" y="850.09" width="64.17" height="6.28" transform="translate(-2.24 1.55) rotate(-0.15)"/><polygon class="cls-11" points="569.42 806.59 605.94 806.49 624.49 850 587.79 850.09 551.1 850.19 569.42 806.59"/><rect class="cls-14" x="578.99" y="873.77" width="17.8" height="27.34" transform="translate(-2.32 1.54) rotate(-0.15)"/><path class="cls-20" d="M587.87,878.56a3.38,3.38,0,0,1,3.39,3.37l0,6.13-6.77,0,0-6.13A3.38,3.38,0,0,1,587.87,878.56Z"/><rect class="cls-21" x="576.83" y="870.64" width="22.05" height="3.13" transform="translate(-2.28 1.54) rotate(-0.15)"/><rect class="cls-18" x="594.54" y="780.11" width="11.37" height="26.4" transform="translate(-2.08 1.57) rotate(-0.15)"/><rect class="cls-14" x="597.34" y="771.7" width="5.68" height="8.41" transform="translate(-2.03 1.57) rotate(-0.15)"/><rect class="cls-18" x="569.39" y="780.18" width="11.37" height="26.4" transform="translate(-2.08 1.51) rotate(-0.15)"/><rect class="cls-14" x="572.19" y="771.76" width="5.68" height="8.41" transform="translate(-2.03 1.51) rotate(-0.15)"/><path class="cls-16" d="M578.11,676.41,573.87,659l1.74-.68c5.55-.4,11.15-.55,16.81-.42a180.46,180.46,0,0,1,21.77,1.81L603,665.91S584.24,675.5,578.11,676.41Z"/><path class="cls-5" d="M752.35,758l-3.24-27.45a270.05,270.05,0,0,1,60-11.36l-16.58,14S761.84,755.88,752.35,758Z"/><rect class="cls-14" x="571" y="642.98" width="7.62" height="33.4" transform="translate(-1.73 1.51) rotate(-0.15)"/><path class="cls-5" d="M574.81,653.05c26-13.75,11.35-26.32,11.35-26.32,6.52-10.24-4.1-12.19-4.1-12.19s.58-9.45-6.63-9.94c-4.81-.33-8.39,1.78-8.11,10,0,0-10.61,2-4,12.21,0,0-14.56,12.65,11.49,26.26"/><path class="cls-22" d="M563.28,626.79c-6.58-10.2,4-12.21,4-12.21-.27-7.76,2.92-10.06,7.35-10l.13,48.48h0C548.72,639.44,563.28,626.79,563.28,626.79Z"/><rect class="cls-14" x="737.64" y="689.56" width="15.6" height="68.41" transform="translate(-1.9 1.96) rotate(-0.15)"/><path class="cls-14" d="M745.45,710.18c53.21-28.16,23.25-53.91,23.25-53.91,13.36-21-8.4-25-8.4-25s1.19-19.36-13.59-20.36c-9.86-.67-17.19,3.64-16.6,20.44,0,0-21.73,4.11-8.26,25,0,0-29.83,25.91,23.52,53.79"/><path class="cls-3" d="M721.84,656.39c-13.47-20.89,8.26-25,8.26-25-.55-15.9,6-20.61,15-20.5l.26,99.29h0C692,682.3,721.84,656.39,721.84,656.39Z"/><path class="cls-15" d="M521.95,342.94s-28.5-18.86-14-41.18c18-27.69,52.8-1.83,52.8-1.83s6.64-50.62,53.37-39c40.2,10,25.29,51.22,25.29,51.22s15.67-3.09,19.77,10c5.37,17.2-16.84,20.74-16.84,20.74Z"/></g></g></svg>